<svg width="692" height="867" viewBox="0 0 692 867" fill="none" xmlns="http://www.w3.org/2000/svg">
<path d="M398.44 5.4024C399.496 5.62203 400.552 5.84165 401.64 6.06793C424.108 10.8091 449.117 17.5201 468.44 30.4024C471.768 30.1481 474.264 28.3998 477.055 26.6719C494.342 16.0497 515.365 14.0826 535.128 18.7774C537.614 19.592 540.011 20.4484 542.44 21.4024C543.222 21.6984 544.003 21.9944 544.808 22.2994C564.493 29.8478 583.47 39.2387 602.44 48.4024C603.378 48.8548 603.378 48.8548 604.334 49.3163C617.715 55.7831 630.839 62.5112 643.44 70.4024C644.083 70.8014 644.725 71.2003 645.387 71.6114C665.257 84.0568 682.488 98.9053 689.378 122.152C696.995 157.732 676.955 197.322 658.44 226.402C647.309 243.068 634.293 258.012 614.058 262.988C598.506 265.449 587.095 261.043 574.44 252.402C573.781 252.072 573.12 251.742 572.44 251.402C577.752 338.831 577.752 338.831 605.745 420.857C614.718 438.569 622.938 456.991 627.44 476.402C627.601 477.088 627.762 477.773 627.928 478.479C634.944 510.039 631.349 545.313 615.19 573.59C614.136 575.579 614.136 575.579 615.44 578.402C616.967 579.911 616.967 579.911 618.878 581.402C632.773 593.309 641.311 606.916 646.44 624.402C646.92 626.019 646.92 626.019 647.409 627.668C655.88 662.02 645.929 700.117 628.003 729.777C623.923 736.378 619.564 742.56 614.44 748.402C615.1 749.062 615.76 749.722 616.44 750.402C616.897 750.865 617.353 751.328 617.823 751.805C618.96 752.927 620.124 754.022 621.308 755.094C631.272 764.379 637.454 776.589 638.819 790.172C639.137 800.289 637.685 808.797 631.19 816.777C620.89 827.402 605.809 831.298 591.347 831.535C589.545 831.538 587.743 831.535 585.94 831.527C585.042 831.531 584.144 831.535 583.218 831.539C577.867 831.531 572.735 831.182 567.44 830.402C567.234 831.64 567.028 832.877 566.815 834.152C564.721 843.437 560.283 852.724 552.44 858.402C540.532 865.571 529.94 866.701 516.303 866.656C514.768 866.659 513.233 866.662 511.698 866.666C507.496 866.674 503.294 866.67 499.092 866.664C494.555 866.659 490.017 866.666 485.479 866.672C476.595 866.681 467.712 866.679 458.828 866.673C451.607 866.668 444.386 866.668 437.164 866.67C436.136 866.67 435.108 866.671 434.048 866.671C431.959 866.672 429.87 866.672 427.781 866.673C408.196 866.679 388.612 866.672 369.027 866.661C352.23 866.652 335.433 866.654 318.636 866.663C299.123 866.674 279.609 866.678 260.096 866.672C258.014 866.671 255.932 866.671 253.851 866.67C252.826 866.67 251.802 866.669 250.747 866.669C243.536 866.667 236.326 866.67 229.116 866.675C220.325 866.681 211.535 866.679 202.745 866.668C198.261 866.663 193.778 866.661 189.295 866.668C185.188 866.674 181.08 866.67 176.973 866.66C175.49 866.658 174.008 866.659 172.525 866.664C158.189 866.707 144.706 865.336 133.565 855.277C127.279 848.33 123.96 839.517 122.44 830.402C121.505 830.564 120.569 830.725 119.605 830.891C101.141 833.51 79.5896 832.586 64.003 821.465C56.6689 815.467 52.092 808.585 51.0889 799.066C50.6897 782.626 55.8891 768.476 67.2491 756.539C69.8726 753.981 72.5368 751.636 75.4405 749.402C72.3161 744.609 69.1025 739.949 65.628 735.402C44.4314 706.277 35.6564 667.611 41.1397 632.078C45.3576 610.411 57.6087 591.24 75.4405 578.402C74.8323 574.089 73.2532 570.906 71.1905 567.09C61.851 549.037 58.828 529.22 59.003 509.09C59.008 507.948 59.008 507.948 59.0132 506.784C59.0911 494.602 59.9669 483.141 63.4405 471.402C63.6712 470.593 63.902 469.784 64.1397 468.951C69.8366 449.377 78.5645 430.919 87.753 412.777C112.735 363.272 114.167 304.885 117.44 250.402C116.528 251.147 116.528 251.147 115.596 251.907C103.552 261.66 91.8016 264.851 76.4405 263.402C72.4515 262.571 69.071 261.234 65.4405 259.402C64.4556 258.916 63.4708 258.43 62.4561 257.93C32.6384 241.924 14.2563 199.011 4.70952 168.03C-1.45617 147.159 -2.65619 125.87 7.78814 106.207C10.3198 101.91 13.135 98.1331 16.4405 94.4024C17.174 93.5632 17.9074 92.724 18.6631 91.8594C45.9874 62.5925 90.2354 46.0688 126.44 30.4024C127.996 29.7249 127.996 29.7249 129.584 29.0338C152.574 19.0815 176.37 12.2027 201.265 20.1251C207.008 22.4351 212.745 25.035 217.429 29.1485C219.355 30.602 219.355 30.602 221.632 30.3672C224.86 29.2584 227.784 27.8181 230.821 26.2664C252.364 15.3023 275.659 8.41163 299.44 4.4024C300.294 4.24159 301.148 4.08078 302.027 3.9151C332.744 -1.79935 367.967 -1.21998 398.44 5.4024Z" fill="#0B191D"/>
<path d="M491.542 68.8242C492.498 69.675 493.455 70.5258 494.44 71.4024C495.191 72.0675 495.941 72.7327 496.714 73.418C520.8 96.0758 527.299 130.168 534.785 160.872C538.387 175.58 542.421 190.097 546.963 204.542C549.529 212.767 551.458 220.819 552.44 229.402C552.56 230.433 552.68 231.463 552.803 232.525C553.173 235.94 553.5 239.357 553.815 242.777C553.877 243.43 553.939 244.082 554.003 244.755C554.925 254.505 555.648 264.262 556.276 274.035C556.578 278.658 556.882 283.28 557.19 287.902C557.268 289.068 557.346 290.234 557.426 291.436C558.76 311.017 561.116 330.316 564.242 349.689C564.395 350.648 564.548 351.607 564.705 352.594C564.991 354.371 565.285 356.148 565.589 357.922C566.823 365.529 566.823 365.529 565.44 369.402C563.436 371.223 561.605 372.661 559.378 374.152C558.442 374.797 558.442 374.797 557.487 375.455C550.4 380.246 543.013 384.435 535.44 388.402C534.82 388.734 534.199 389.067 533.559 389.409C511.872 400.877 487.289 407.269 463.44 412.402C461.793 412.772 460.146 413.142 458.499 413.512C448.633 415.662 438.693 417.163 428.69 418.527C427.538 418.686 426.386 418.845 425.199 419.008C421.284 419.52 417.365 419.973 413.44 420.402C412.267 420.536 412.267 420.536 411.07 420.673C392.374 422.744 373.675 422.745 354.891 422.718C351.358 422.713 347.826 422.72 344.294 422.739C320.838 422.859 297.757 422.022 274.44 419.402C273.001 419.242 273.001 419.242 271.532 419.078C266.528 418.505 261.547 417.833 256.565 417.09C255.858 416.986 255.15 416.882 254.421 416.775C212.248 410.552 155.027 399.989 123.44 368.402C123.616 358.544 125.84 348.7 127.536 339.023C131.259 317.356 132.623 295.529 134.188 273.628C134.793 265.175 135.431 256.724 136.126 248.278C136.326 245.809 136.519 243.341 136.701 240.871C137.867 225.42 141.183 211.663 146.029 196.962C148.567 189.193 150.635 181.349 152.608 173.422C152.775 172.755 152.942 172.089 153.114 171.402C154.296 166.676 155.464 161.946 156.628 157.215C167.77 111.989 167.77 111.989 174.628 99.6524C175.002 98.9647 175.376 98.2769 175.761 97.5684C179.882 90.2373 184.911 83.7186 190.44 77.4024C191.481 76.2093 191.481 76.2093 192.542 74.9922C257.049 6.37616 380.45 4.91304 491.542 68.8242Z" fill="#8EC4C1"/>
<path d="M158.784 507.268C159.434 507.266 160.083 507.263 160.752 507.261C162.943 507.254 165.134 507.255 167.325 507.255C168.906 507.252 170.487 507.248 172.068 507.244C176.424 507.234 180.78 507.23 185.136 507.228C189.829 507.224 194.523 507.214 199.216 507.205C210.556 507.186 221.897 507.176 233.237 507.167C238.575 507.162 243.913 507.157 249.251 507.152C266.992 507.135 284.733 507.12 302.474 507.113C307.08 507.111 311.685 507.109 316.29 507.107C318.007 507.106 318.007 507.106 319.758 507.106C338.305 507.097 356.852 507.072 375.399 507.04C394.433 507.007 413.467 506.989 432.501 506.985C443.191 506.983 453.881 506.974 464.571 506.949C473.674 506.927 482.777 506.919 491.88 506.929C496.525 506.933 501.17 506.931 505.815 506.912C510.068 506.894 514.321 506.895 518.575 506.911C520.112 506.913 521.65 506.909 523.188 506.897C531.133 506.84 537.668 506.809 544.44 511.402C549.633 517.763 548.897 524.284 548.193 532.177C547.847 535.101 547.454 538.014 547.042 540.93C546.892 542.037 546.742 543.145 546.587 544.286C546.259 546.698 545.928 549.109 545.594 551.52C545.05 555.448 544.515 559.376 543.983 563.305C543.796 564.685 543.609 566.065 543.422 567.445C543.327 568.141 543.233 568.836 543.136 569.552C542.843 571.708 542.55 573.864 542.256 576.02C540.079 591.995 537.976 607.98 535.877 623.966C535.46 627.139 535.043 630.312 534.625 633.485C532.41 650.318 530.209 667.153 528.031 683.99C527.688 686.642 527.345 689.294 527.002 691.946C525.682 702.139 525.682 702.139 524.368 712.333C523.237 721.132 522.09 729.929 520.921 738.723C520.482 742.082 520.07 745.442 519.666 748.805C519.434 750.608 519.202 752.412 518.968 754.215C518.842 755.37 518.842 755.37 518.714 756.548C517.97 762.005 516.264 764.639 512.44 768.402C509.335 769.438 507.191 769.532 503.934 769.539C502.783 769.544 501.631 769.549 500.444 769.555C499.173 769.555 497.902 769.556 496.592 769.556C495.232 769.56 493.873 769.565 492.513 769.569C488.769 769.581 485.025 769.587 481.281 769.592C477.246 769.598 473.211 769.609 469.176 769.62C459.429 769.645 449.681 769.659 439.934 769.672C437.182 769.676 434.43 769.68 431.677 769.684C414.593 769.709 397.509 769.731 380.425 769.743C376.467 769.746 372.51 769.749 368.552 769.752C367.569 769.753 366.585 769.754 365.572 769.755C349.629 769.767 333.687 769.801 317.745 769.842C301.385 769.885 285.024 769.908 268.664 769.913C259.475 769.917 250.286 769.929 241.098 769.962C233.274 769.99 225.451 770.001 217.627 769.989C213.634 769.984 209.642 769.987 205.649 770.012C201.994 770.034 198.34 770.034 194.685 770.015C192.736 770.01 190.787 770.031 188.838 770.052C179.378 769.966 179.378 769.966 175.688 767.046C173.161 764.073 172.381 762.169 171.669 758.355C171.448 757.206 171.228 756.058 171 754.875C170.157 749.646 169.404 744.424 168.784 739.164C168.569 737.421 168.569 737.421 168.35 735.644C167.957 732.461 167.57 729.279 167.185 726.096C166.413 719.756 165.615 713.419 164.819 707.082C164.726 706.34 164.633 705.598 164.537 704.834C162.143 685.772 159.514 666.744 156.878 647.715C156.64 645.996 156.402 644.277 156.164 642.558C155.693 639.156 155.222 635.755 154.751 632.353C154.636 631.524 154.522 630.694 154.403 629.84C154.174 628.181 153.944 626.522 153.714 624.863C151.456 608.573 149.255 592.277 147.079 575.977C145.802 566.415 144.525 556.854 143.128 547.309C143.029 546.632 142.93 545.955 142.829 545.258C142.397 542.306 141.957 539.355 141.505 536.405C140.185 527.549 139.135 520.12 144.44 512.402C149.083 507.987 152.508 507.278 158.784 507.268Z" fill="#FDFDFD"/>
<path d="M192.682 625.5H191.888V665.053H183V609.947H195.777L210.3 649.5H211.093V609.947H219.982V665.053H207.205L192.682 625.5Z" fill="#0B191D"/>
<path d="M240.584 609.947V644.289C240.584 646.342 240.637 648.184 240.743 649.816C240.902 651.447 241.246 652.842 241.775 654C242.357 655.105 243.203 655.974 244.314 656.605C245.478 657.237 247.066 657.553 249.076 657.553C251.086 657.553 252.647 657.237 253.758 656.605C254.922 655.974 255.769 655.105 256.298 654C256.88 652.842 257.224 651.447 257.329 649.816C257.488 648.184 257.567 646.342 257.567 644.289V609.947H267.964V642.711C267.964 646.605 267.726 650 267.249 652.895C266.773 655.789 265.847 658.211 264.472 660.158C263.096 662.105 261.165 663.579 258.679 664.579C256.245 665.526 253.044 666 249.076 666C245.108 666 241.881 665.526 239.394 664.579C236.96 663.579 235.056 662.105 233.68 660.158C232.305 658.211 231.379 655.789 230.902 652.895C230.426 650 230.188 646.605 230.188 642.711V609.947H240.584Z" fill="#0B191D"/>
<path d="M289.598 665.053H279.202V609.947H300.232C305.629 609.947 309.755 611.474 312.612 614.526C315.469 617.579 316.898 621.737 316.898 627C316.898 631.053 315.946 634.474 314.041 637.263C312.189 640 309.517 641.737 306.026 642.474L317.85 665.053H306.422L295.867 643.658H289.598V665.053ZM298.089 635.605C300.894 635.605 302.904 635.053 304.121 633.947C305.338 632.789 305.946 630.974 305.946 628.5V625.5C305.946 623.026 305.338 621.237 304.121 620.132C302.904 618.974 300.894 618.395 298.089 618.395H289.598V635.605H298.089Z" fill="#0B191D"/>
<path d="M326.628 665.053V657.316H339.088V617.684H326.628V609.947H361.864V617.684H349.404V657.316H361.864V665.053H326.628Z" fill="#0B191D"/>
<path d="M393.26 666C386.011 666 380.641 663.526 377.15 658.579C373.711 653.632 371.991 646.605 371.991 637.5C371.991 628.447 373.711 621.447 377.15 616.5C380.641 611.5 386.011 609 393.26 609C396.011 609 398.418 609.368 400.481 610.105C402.598 610.842 404.423 611.868 405.957 613.184C407.492 614.447 408.761 616 409.767 617.842C410.772 619.632 411.565 621.605 412.147 623.763L402.624 626.447C402.254 625.184 401.83 624 401.354 622.895C400.878 621.789 400.27 620.842 399.529 620.053C398.841 619.211 397.968 618.579 396.91 618.158C395.852 617.684 394.582 617.447 393.101 617.447C389.503 617.447 386.911 618.816 385.324 621.553C383.789 624.289 383.022 628.026 383.022 632.763V642.237C383.022 646.974 383.789 650.711 385.324 653.447C386.911 656.184 389.503 657.553 393.101 657.553C394.582 657.553 395.852 657.342 396.91 656.921C397.968 656.447 398.841 655.816 399.529 655.026C400.27 654.184 400.878 653.211 401.354 652.105C401.83 651 402.254 649.816 402.624 648.553L412.147 651.237C411.565 653.395 410.772 655.395 409.767 657.237C408.761 659.026 407.492 660.579 405.957 661.895C404.423 663.158 402.598 664.158 400.481 664.895C398.418 665.632 396.011 666 393.26 666Z" fill="#0B191D"/>
<path d="M450.368 639.553L450.844 623.605H450.13L439.416 651.947L428.703 623.605H427.988L428.464 639.553V665.053H419.417V609.947H431.798L439.496 630.237H440.051L447.828 609.947H459.415V665.053H450.368V639.553Z" fill="#0B191D"/>
<path d="M486.366 666C481.605 666 477.531 665.184 474.145 663.553C470.812 661.921 468.087 659.763 465.971 657.079L472.24 650.605C474.304 652.974 476.526 654.737 478.907 655.895C481.34 657 483.933 657.553 486.684 657.553C489.858 657.553 492.292 656.842 493.985 655.421C495.678 654 496.524 651.947 496.524 649.263C496.524 647.053 495.89 645.395 494.62 644.289C493.35 643.132 491.207 642.316 488.192 641.842L482.319 640.895C477.187 640 473.536 638.158 471.367 635.368C469.198 632.526 468.114 629.184 468.114 625.342C468.114 620.079 469.833 616.053 473.272 613.263C476.711 610.421 481.472 609 487.557 609C491.895 609 495.625 609.684 498.747 611.053C501.921 612.421 504.46 614.289 506.365 616.658L500.254 623.132C498.773 621.395 497.001 620.026 494.937 619.026C492.874 617.974 490.44 617.447 487.636 617.447C481.605 617.447 478.589 619.921 478.589 624.868C478.589 626.974 479.224 628.579 480.494 629.684C481.763 630.789 483.933 631.605 487.001 632.132L492.795 633.158C497.609 634.053 501.18 635.816 503.508 638.447C505.836 641.079 507 644.447 507 648.553C507 651.132 506.55 653.5 505.651 655.658C504.751 657.763 503.429 659.605 501.683 661.184C499.937 662.711 497.768 663.895 495.175 664.737C492.636 665.579 489.699 666 486.366 666Z" fill="#0B191D"/>
<path d="M344.503 220.027C345.599 220.028 345.599 220.028 346.717 220.029C358.066 220.068 368.602 220.872 379.44 224.402C380.139 224.617 380.838 224.831 381.559 225.052C402.486 231.519 421.687 242.099 437.44 257.402C438.259 258.147 439.078 258.893 439.921 259.66C455.54 274.335 467.22 295.807 468.44 317.402C468.52 318.593 468.52 318.593 468.601 319.809C469.292 339.782 462.093 356.048 450.96 372.147C443.315 383.264 440.313 394.1 439.815 407.465C439.757 408.763 439.757 408.763 439.698 410.088C439.605 412.192 439.522 414.297 439.44 416.402C435.61 417.043 431.775 417.661 427.94 418.277C426.901 418.451 425.862 418.625 424.792 418.805C401.574 422.492 378.338 422.751 354.891 422.718C351.358 422.713 347.826 422.72 344.294 422.739C313.003 422.899 282.441 420.854 251.44 416.402C251.51 415.057 251.51 415.057 251.581 413.684C252.09 396.092 247.328 380.735 236.94 366.402C225.278 350.285 219.974 331.177 222.722 311.376C226.348 290.269 238.021 273.702 252.44 258.402C253.024 257.766 253.608 257.129 254.21 256.473C258.777 251.659 263.901 248.025 269.44 244.402C270.02 244.016 270.599 243.631 271.196 243.233C293.63 228.345 317.419 219.952 344.503 220.027Z" fill="#FCFDFC"/>
<path d="M117.44 389.402C122.528 392.137 127.45 395.038 132.315 398.152C209.754 445.814 320.925 447.85 444.44 435.402C445.561 435.23 446.683 435.058 447.838 434.88C487.774 428.566 531.413 417.26 564.55 393.363C567.153 391.597 569.48 390.422 572.44 389.402C572.955 390.972 572.955 390.972 573.479 392.574C576.985 402.835 581.313 412.439 586.253 422.09C605.445 459.675 621.18 501.272 608.128 543.59C607.272 546.209 606.369 548.808 605.44 551.402C605.059 552.476 604.677 553.55 604.284 554.656C595.97 576.2 577.692 595.498 557.44 606.402C556.78 606.072 556.12 605.742 555.44 605.402C555.551 604.621 555.661 603.839 555.775 603.033C556.821 595.634 557.866 588.235 558.909 580.835C559.445 577.032 559.982 573.228 560.52 569.425C561.04 565.749 561.558 562.072 562.076 558.396C562.273 556.999 562.47 555.603 562.668 554.206C567.491 527.518 567.491 527.518 560.19 502.461C555.269 495.987 547.914 492.24 540.44 489.402C540.618 487.956 540.618 487.956 540.8 486.48C540.929 485.217 541.058 483.954 541.19 482.652C541.399 480.773 541.399 480.773 541.612 478.855C541.747 475.382 541.747 475.382 539.741 472.98C537.191 471.231 535.938 470.861 532.878 470.902C532.113 470.892 531.349 470.882 530.561 470.871C527.851 471.313 527.851 471.313 525.44 475.402C523.955 481.342 523.955 481.342 522.44 487.402C405.29 487.402 288.14 487.402 167.44 487.402C166.12 483.112 164.8 478.822 163.44 474.402C160.877 471.272 160.877 471.272 158.284 471.004C157.124 471.016 157.124 471.016 155.94 471.027C155.167 471.02 154.393 471.012 153.597 471.004C150.93 471.497 150.036 472.236 148.44 474.402C148.042 479.482 148.735 484.379 149.44 489.402C148.883 489.621 148.327 489.841 147.753 490.066C136.9 494.576 129.934 500.433 125.272 511.316C121.097 521.784 123.703 534.218 125.323 545.094C125.672 547.439 126.009 549.786 126.343 552.133C127.052 557.099 127.777 562.063 128.503 567.027C129.348 572.821 130.187 578.615 131.013 584.411C131.345 586.718 131.687 589.025 132.029 591.331C132.232 592.741 132.434 594.151 132.636 595.561C132.816 596.789 132.996 598.017 133.181 599.282C133.411 602.046 133.345 603.816 132.44 606.402C113.399 594.429 98.7964 580.498 88.4403 560.402C87.9698 559.536 87.4993 558.67 87.0146 557.777C72.4629 528.944 75.4095 494.343 85.0028 464.652C90.011 449.831 96.8039 435.874 103.636 421.828C104.696 419.645 105.756 417.461 106.815 415.277C107.323 414.232 107.831 413.187 108.354 412.11C111.923 404.688 115.017 397.277 117.44 389.402Z" fill="#8EC4C1"/>
<path d="M200.718 42.0391C201.286 42.489 201.855 42.9389 202.44 43.4024C201.69 43.9477 200.94 44.4929 200.167 45.0547C163.754 71.8827 150.41 104.71 140.388 147.405C137.548 159.439 134.519 171.428 131.44 183.402C131.206 184.315 130.972 185.228 130.73 186.169C125.512 206.155 116.923 229.582 98.706 241.137C91.7047 244.657 85.3971 245.849 77.8037 243.633C53.9964 234.701 42.084 207.142 32.0654 185.504C25.5504 170.836 20.2743 155.918 20.1279 139.84C20.0989 138.805 20.0699 137.771 20.04 136.705C19.9306 123.269 25.2319 112.855 34.1904 103.09C61.6539 76.85 164.095 15.7181 200.718 42.0391Z" fill="#8EC4C2"/>
<path d="M512.19 35.9023C513.367 35.8749 513.367 35.8749 514.567 35.8469C528.435 35.9854 541.333 41.675 553.815 47.1523C554.561 47.476 555.307 47.7997 556.076 48.1332C655.754 91.3965 655.754 91.3965 667.878 120.84C675.734 142.224 667.171 165.937 658.418 185.711C656.544 189.719 654.523 193.64 652.432 197.538C651.43 199.421 650.468 201.32 649.511 203.227C641.506 218.998 630.862 237.107 613.44 243.402C605.257 245.335 599.215 245.01 591.78 240.863C572.874 229.059 565.247 204.722 559.44 184.402C559.201 183.582 558.962 182.762 558.715 181.917C555.34 170.301 552.544 158.586 549.94 146.777C547.298 134.807 544.346 123.029 540.44 111.402C540.055 110.246 539.67 109.09 539.272 107.898C534.224 93.8549 526.956 80.8839 517.44 69.4023C516.756 68.5657 516.071 67.7291 515.366 66.8672C507.636 57.8514 498.445 49.8092 488.44 43.4023C494.553 36.5866 503.562 36.0035 512.19 35.9023Z" fill="#8EC4C2"/>
<path d="M572.44 389.402C572.955 390.972 572.955 390.972 573.479 392.574C576.985 402.835 581.313 412.439 586.253 422.09C605.445 459.675 621.18 501.272 608.128 543.59C607.272 546.209 606.369 548.808 605.44 551.402C604.868 553.013 604.868 553.013 604.284 554.656C595.97 576.2 577.692 595.498 557.44 606.402C556.78 606.072 556.12 605.742 555.44 605.402C555.551 604.621 555.661 603.839 555.775 603.033C556.821 595.634 557.866 588.235 558.909 580.835C559.445 577.032 559.982 573.228 560.52 569.425C561.04 565.749 561.558 562.072 562.076 558.396C562.273 556.999 562.47 555.603 562.668 554.206C567.491 527.518 567.491 527.518 560.19 502.461C555.269 495.987 547.914 492.24 540.44 489.402C540.618 487.956 540.618 487.956 540.8 486.48C540.929 485.217 541.058 483.954 541.19 482.652C541.399 480.773 541.399 480.773 541.612 478.855C541.747 475.382 541.747 475.382 539.741 472.98C537.191 471.231 535.938 470.861 532.878 470.902C532.114 470.892 531.349 470.882 530.562 470.871C527.851 471.313 527.851 471.313 525.44 475.402C524.12 479.032 522.8 482.662 521.44 486.402C503.29 486.402 485.14 486.402 466.44 486.402C460.503 473.59 460.503 473.59 458.565 469.403C455.937 463.735 453.298 458.075 450.573 452.453C450.156 451.589 449.738 450.724 449.307 449.833C448.539 448.249 447.764 446.668 446.982 445.091C445.263 441.541 444.44 439.42 444.44 435.402C445.086 435.298 445.731 435.194 446.395 435.086C488.431 428.141 532.566 416.775 567.44 391.402C570.44 389.402 570.44 389.402 572.44 389.402Z" fill="#8EC4C1"/>
<path d="M243.44 435.402C253.352 435.908 263.128 436.765 272.972 438.074C324.971 444.889 379.485 445.339 431.358 436.953C435.42 436.324 439.335 436.305 443.44 436.402C448.522 446.419 453.48 456.497 458.403 466.592C459.095 468.008 459.789 469.423 460.485 470.837C461.476 472.852 462.459 474.871 463.44 476.891C464.307 478.662 464.307 478.662 465.19 480.47C466.44 483.402 466.44 483.402 466.44 486.402C484.59 486.402 502.74 486.402 521.44 486.402C521.77 483.762 522.1 481.122 522.44 478.402C522.77 478.402 523.1 478.402 523.44 478.402C523.11 481.372 522.78 484.342 522.44 487.402C405.29 487.402 288.14 487.402 167.44 487.402C167.77 486.412 168.1 485.422 168.44 484.402C168.44 485.062 168.44 485.722 168.44 486.402C186.92 486.402 205.4 486.402 224.44 486.402C225.1 484.422 225.76 482.442 226.44 480.402C227.584 477.825 228.75 475.275 229.96 472.73C230.3 472.008 230.641 471.286 230.992 470.541C231.71 469.018 232.431 467.495 233.153 465.973C234.242 463.675 235.327 461.375 236.411 459.074C239.999 451.472 243.622 443.893 247.44 436.402C246.12 436.072 244.8 435.742 243.44 435.402Z" fill="#FCFDFD"/>
<path d="M601.44 592.402C616.439 601.947 625.247 615.048 629.749 632.148C636.228 662.64 627.776 695.995 611.214 721.961C609.077 725.2 606.769 728.298 604.44 731.402C603.817 732.351 603.193 733.3 602.55 734.277C600.658 736.885 599.173 738.691 596.44 740.402C593.148 740.524 590.405 739.927 587.198 739.176C571.549 735.955 556.499 739.42 542.022 745.512C541.17 745.806 540.318 746.1 539.44 746.402C538.78 746.072 538.12 745.742 537.44 745.402C540.394 721.029 543.566 696.685 546.825 672.351C547.127 670.098 547.427 667.844 547.728 665.591C548.208 661.983 548.692 658.376 549.178 654.769C549.443 652.793 549.706 650.817 549.969 648.842C550.441 645.359 550.933 641.88 551.44 638.402C551.665 636.797 551.665 636.797 551.894 635.159C552.125 633.678 552.125 633.678 552.36 632.166C552.49 631.304 552.62 630.442 552.753 629.553C553.575 626.983 554.437 626.241 556.714 624.859C558.065 624.273 559.434 623.726 560.815 623.215C562.282 622.576 563.745 621.932 565.206 621.281C565.929 620.969 566.651 620.658 567.396 620.336C575.357 616.7 582.179 610.956 588.815 605.34C589.387 604.857 589.958 604.375 590.546 603.878C594.586 600.37 598.059 596.544 601.44 592.402Z" fill="#8EC4C2"/>
<path d="M87.4404 592.402C91.6282 595.914 95.5741 599.536 99.4404 603.402C106.829 610.616 115.873 618.353 125.879 621.475C129.9 622.822 133.491 624.261 136.44 627.402C139.64 634.014 139.725 641.892 140.378 649.09C140.623 651.262 140.875 653.433 141.133 655.604C141.669 660.176 142.173 664.749 142.656 669.327C143.42 676.416 144.356 683.477 145.339 690.539C145.499 691.694 145.66 692.849 145.825 694.038C146.145 696.333 146.465 698.628 146.786 700.923C148.939 716.391 150.911 731.859 152.44 747.402C151.423 746.972 150.406 746.542 149.357 746.099C135.09 740.124 120.848 735.977 105.249 739.211C94.941 741.295 94.941 741.295 90.749 738.801C88.2736 736.157 86.3808 733.46 84.4404 730.402C83.3228 728.805 83.3228 728.805 82.1826 727.176C64.371 701.305 54.7049 669.798 58.9131 638.328C62.4114 619.622 72.3347 603.846 87.4404 592.402Z" fill="#8EC4C2"/>
<path d="M344.94 234.152C345.896 234.145 346.851 234.137 347.835 234.129C360.61 234.163 374.427 236.329 384.651 244.555C389.766 249.837 393.548 256.552 393.69 263.965C393.505 274.636 389.56 282.507 382.44 290.402C374.356 297.63 365.09 301.063 354.44 302.402C354.157 318.543 354.157 318.543 359.44 333.402C359.84 334.051 360.24 334.699 360.651 335.367C365.04 341.366 371.79 344.674 379.058 345.812C386.757 346.088 393.266 344.002 399.565 339.652C402.56 337.684 403.403 337.404 407.19 337.277C411.124 338.639 412.426 339.776 414.44 343.402C415.072 347.111 414.632 348.984 413.065 352.402C405.848 360.65 395.878 363.666 385.245 364.719C372.208 365.206 361.041 361.157 351.335 352.531C347.935 349.267 347.935 349.267 346.44 347.402C345.94 346.402 345.44 346.082 345.44 345.402C344.78 345.402 345.62 345.402 344.94 345.402C344.692 345.981 343.943 346.56 343.687 347.156C337.44 353.902 330.636 359.372 322.44 362.402C321.458 362.772 321.458 362.772 320.456 363.148C309.86 366.431 298.368 364.959 288.44 360.402C283.42 357.691 278.527 354.968 276.44 349.402C275.891 345.636 275.809 343.311 278.003 340.59C280.445 337.562 283.583 336.902 287.44 337.402C290.879 337.848 292.583 340.267 295.097 341.898C300.591 345.424 306.055 346.219 312.44 345.402C321.485 342.995 327.243 339.676 332.327 331.793C335.383 325.231 335.803 318.522 336.065 311.402C336.104 310.532 336.143 309.662 336.183 308.766C336.276 306.645 336.359 304.524 336.44 302.402C335.315 302.273 335.315 302.273 334.167 302.141C322.405 300.526 313.505 296.253 305.44 287.402C298.889 278.452 296.095 269.506 297.44 258.402C299.696 251.015 303.992 245.587 310.44 241.402C321.476 235.607 332.613 234.053 344.94 234.152Z" fill="#0A191D"/>
<path d="M139.44 826.402C275.07 826.402 410.7 826.402 550.44 826.402C547.021 836.661 547.021 836.661 544.253 839.777C543.723 840.404 543.193 841.03 542.647 841.676C535.14 847.549 526.287 846.83 517.258 846.79C515.706 846.794 514.154 846.8 512.601 846.806C508.348 846.821 504.095 846.817 499.841 846.809C495.249 846.804 490.658 846.817 486.066 846.827C477.075 846.844 468.085 846.845 459.094 846.84C451.787 846.836 444.48 846.837 437.172 846.843C435.612 846.844 435.612 846.844 434.021 846.845C431.907 846.847 429.794 846.848 427.681 846.85C407.869 846.863 388.057 846.858 368.244 846.846C350.118 846.836 331.992 846.849 313.866 846.873C295.252 846.898 276.638 846.907 258.024 846.901C247.575 846.897 237.125 846.899 226.675 846.917C217.781 846.932 208.887 846.932 199.992 846.915C195.455 846.906 190.917 846.904 186.38 846.92C182.224 846.933 178.07 846.929 173.915 846.909C172.413 846.906 170.911 846.908 169.409 846.919C160.271 846.978 153.505 846.602 146.198 840.543C145.659 839.919 145.121 839.295 144.565 838.652C144.011 838.039 143.457 837.425 142.886 836.793C141.44 834.402 141.44 834.402 139.44 826.402Z" fill="#FDFDFD"/>
<path d="M273.128 148.152C284.583 156.381 292.074 167.305 295.003 181.254C297.234 197.309 294.248 213.654 285.44 227.402C277.052 238.358 266.324 246.811 252.44 249.402C239 250.447 229.545 247.756 218.882 239.535C209.5 231.339 203.211 218.397 202.256 206.008C201.469 190.544 202.438 175.579 211.44 162.402C211.943 161.644 212.446 160.886 212.964 160.105C227.058 140.386 252.808 135.504 273.128 148.152Z" fill="#0A181D"/>
<path d="M439.69 140.902C440.941 140.912 440.941 140.912 442.216 140.922C454.073 141.271 463.707 146.516 472.44 154.402C485.614 169.217 488.547 185.393 487.683 204.56C486.553 217.793 480.395 230.439 470.792 239.578C459.812 248.096 447.905 249.743 434.44 248.402C422.501 245.461 412.581 237.218 405.44 227.402C396.165 212.029 392.76 194.972 396.565 177.215C400.676 164.003 408.396 153.238 420.007 145.656C426.576 142.271 432.287 140.842 439.69 140.902Z" fill="#0A191D"/>
<path d="M190.443 786.965C191.83 786.948 193.218 786.926 194.605 786.9C198.39 786.843 202.173 786.854 205.959 786.877C210.052 786.889 214.145 786.838 218.238 786.796C226.246 786.724 234.254 786.712 242.263 786.724C248.778 786.732 255.293 786.721 261.807 786.697C262.736 786.693 263.665 786.69 264.622 786.686C266.51 786.68 268.397 786.673 270.284 786.666C287.97 786.603 305.655 786.613 323.34 786.644C339.492 786.67 355.641 786.605 371.793 786.495C388.403 786.384 405.013 786.336 421.624 786.356C430.94 786.365 440.253 786.351 449.568 786.269C457.501 786.2 465.432 786.191 473.365 786.258C477.407 786.291 481.444 786.297 485.486 786.228C512.157 785.801 512.157 785.801 521.726 794.582C530.44 803.806 530.44 803.806 530.44 806.402C408.01 806.402 285.58 806.402 159.44 806.402C161.42 804.092 163.4 801.782 165.44 799.402C166.265 798.399 167.09 797.396 167.94 796.363C174.799 788.658 180.044 786.798 190.443 786.965Z" fill="#F7F7F7"/>
<path d="M604.44 765.402C607.19 767.84 607.19 767.84 609.44 770.402C609.932 770.914 610.423 771.426 610.929 771.953C617.776 779.344 620.192 786.334 619.815 796.445C619.303 800.489 618.329 802.514 615.44 805.402C608.796 810.402 608.796 810.402 604.44 810.402C604.342 809.219 604.244 808.036 604.144 806.816C602.796 790.78 602.796 790.78 594.44 777.402C591.651 775.286 590.404 775.404 586.815 775.59C583.177 776.062 583.177 776.062 581.44 779.402C581.588 783.91 581.687 786.382 584.378 790.027C588.327 796.489 588.61 804.92 588.44 812.402C579.958 812.685 571.079 812.408 563.44 808.402C563.461 807.787 563.482 807.172 563.504 806.538C563.587 803.743 563.639 800.948 563.69 798.152C563.724 797.184 563.757 796.216 563.792 795.219C563.948 789.648 563.948 789.648 561.651 784.73C559.352 783.091 559.352 783.091 555.815 783.402C552.434 784.015 552.434 784.015 551.269 786.137C550.335 788.691 550.029 790.944 549.815 793.652C549.741 794.544 549.666 795.436 549.589 796.355C549.54 797.031 549.491 797.706 549.44 798.402C548.78 798.402 548.12 798.402 547.44 798.402C546.065 796.969 546.065 796.969 544.44 794.965C540.792 790.63 536.71 787.027 532.382 783.383C530.44 781.402 530.44 781.402 530.44 778.402C538.599 766.335 550.847 759.647 564.792 756.941C579.014 754.84 592.708 756.735 604.44 765.402Z" fill="#FAFBFB"/>
<path d="M155.479 771.473C157.46 773.421 158.57 774.771 159.44 777.402C158.994 781.158 157.301 782.905 154.659 785.512C153.9 786.266 153.141 787.02 152.358 787.797C151.161 788.963 151.161 788.963 149.94 790.152C149.142 790.945 148.345 791.738 147.522 792.555C141.594 798.402 141.594 798.402 140.44 798.402C140.276 797.155 140.276 797.155 140.108 795.883C139.87 794.253 139.87 794.253 139.628 792.59C139.477 791.511 139.326 790.432 139.171 789.32C138.418 786.311 137.945 785.167 135.44 783.402C132.219 783 130.307 782.775 127.628 784.715C125.527 787.7 125.319 790.322 125.343 793.851C125.346 794.699 125.349 795.547 125.352 796.42C125.361 797.301 125.369 798.182 125.378 799.09C125.382 799.982 125.387 800.875 125.392 801.795C125.403 803.997 125.42 806.2 125.44 808.402C119.782 810.779 115.052 811.892 108.94 812.09C108.213 812.124 107.486 812.158 106.737 812.193C104.972 812.275 103.206 812.34 101.44 812.402C101.063 804.27 100.687 795.129 106.022 788.41C107.716 786.013 107.845 784.682 107.815 781.777C107.823 781.001 107.831 780.225 107.839 779.426C107.707 778.758 107.576 778.09 107.44 777.402C103.899 775.041 102.613 774.83 98.4404 775.402C91.6109 779.773 88.5857 786.154 86.8115 793.973C85.981 799.41 85.7333 804.914 85.4404 810.402C79.4958 809.004 75.51 807.313 71.8349 802.144C68.8387 796.253 69.4921 789.415 71.4365 783.238C76.9519 771.145 86.0981 763.096 98.4404 758.402C118.636 752.06 139.518 758.61 155.479 771.473Z" fill="#FAFBFB"/>
<path d="M259.628 161.402C267.833 166.02 272.19 172.546 275.573 181.215C276.956 186.299 276.857 191.184 276.44 196.402C275.78 195.412 275.12 194.422 274.44 193.402C272.013 190.085 270.266 187.937 266.44 186.402C261.502 185.702 257.552 185.847 253.065 188.09C248.381 192.216 244.767 196.281 244.104 202.609C243.889 212.283 243.889 212.283 248.44 220.402C252.074 223.192 255.871 224.848 260.44 225.402C259.44 227.402 259.44 227.402 256.776 228.504C250.163 230.285 242.451 230.721 236.065 227.902C228.677 223.482 224.053 216.531 221.894 208.324C220.017 196.222 219.871 183.054 226.44 172.402C227.057 171.381 227.057 171.381 227.687 170.34C235.088 160.15 248.292 156.393 259.628 161.402Z" fill="#FAFBFB"/>
<path d="M452.44 162.402C460.243 166.725 464.602 173.284 467.581 181.578C470.082 192.709 470.398 207.386 464.44 217.402C460.658 223.013 456.143 227.697 449.44 229.402C441.953 230.149 436.08 230.207 429.44 226.402C429.44 226.072 429.44 225.742 429.44 225.402C430.104 225.255 430.768 225.109 431.452 224.957C438.781 223.095 441.637 221.065 445.542 214.57C447.629 209.535 447.243 203.188 445.753 198.016C443.576 193.253 440.7 190.393 436.44 187.402C431.039 185.602 426.223 185.544 421.065 188.027C418.212 190.609 416.889 192.862 415.44 196.402C415.11 196.402 414.78 196.402 414.44 196.402C413.74 185.258 415.593 175.964 422.726 167.125C431.286 158.526 441.657 157.436 452.44 162.402Z" fill="#FBFBFB"/>
<path d="M155.44 846.402C280.51 846.402 405.58 846.402 534.44 846.402C532.955 846.897 532.955 846.897 531.44 847.402C531.44 848.062 531.44 848.722 531.44 849.402C408.68 849.402 285.92 849.402 159.44 849.402C159.44 848.742 159.44 848.082 159.44 847.402C158.12 847.072 156.8 846.742 155.44 846.402Z" fill="#132023"/>
<path d="M449.222 680.383C453.116 683.485 455.18 686.253 455.776 691.172C455.862 697.822 455.596 702.092 451.44 707.402C448.529 709.794 445.192 709.879 441.472 709.789C437.76 709.082 436.024 707.109 433.44 704.402C430.357 699.513 430.843 693.973 431.44 688.402C432.613 684.892 434.291 682.346 437.19 679.965C441.364 678.922 445.363 678.259 449.222 680.383Z" fill="#FBFBFB"/>
<path d="M391.441 313.402C393.816 315.027 393.816 315.027 395.441 317.402C396.003 320.84 396.003 320.84 395.441 324.402C392.995 327.784 391.548 329.172 387.441 330.027C383.366 329.179 381.896 327.725 379.44 324.402C378.696 320.431 379.068 318.961 381.316 315.59C384.825 311.977 386.634 312.153 391.441 313.402Z" fill="#0B161A"/>
<path d="M307.44 313.402C310.259 315.998 311.296 317.632 312.003 321.402C311.233 325.506 309.769 326.942 306.44 329.402C303.44 330.027 303.44 330.027 300.44 329.402C297.565 327.34 297.565 327.34 295.44 324.402C294.878 320.84 294.878 320.84 295.44 317.402C299.128 312.732 301.7 311.795 307.44 313.402Z" fill="#0B161A"/>
<path d="M417.44 295.402C419.815 297.027 419.815 297.027 421.44 299.402C422.003 302.84 422.003 302.84 421.44 306.402C418.961 309.83 417.586 311.215 413.378 311.902C410.012 311.329 408.65 311.022 406.44 308.402C405.53 305.69 405.19 303.256 405.44 300.402C408.851 294.875 411.194 293.778 417.44 295.402Z" fill="#0B161B"/>
<path d="M281.44 295.402C283.878 297.527 283.878 297.527 285.44 300.402C285.515 304.667 285.089 306.64 282.315 309.902C278.524 311.88 276.512 311.534 272.44 310.402C270.503 309.34 270.503 309.34 269.44 307.402C268.664 300.412 268.664 300.412 271.315 296.965C275.084 294.194 276.888 294.128 281.44 295.402Z" fill="#0E1B20"/>
<path d="M293.44 182.402C295.915 184.877 295.7 186.332 295.714 189.715C295.706 190.395 295.698 191.076 295.69 191.777C295.698 192.45 295.706 193.123 295.714 193.816C295.699 197.51 295.467 200.266 293.44 203.402C291.8 200.121 292.298 196.504 292.315 192.902C292.312 192.117 292.308 191.332 292.304 190.523C292.314 184.656 292.314 184.656 293.44 182.402Z" fill="#132023"/>
<path d="M59.4406 639.402C59.7706 639.402 60.1006 639.402 60.4406 639.402C61.1081 643.324 61.5603 647.174 61.6906 651.152C61.7163 651.89 61.7421 652.627 61.7687 653.387C61.3553 655.926 60.3834 656.787 58.4406 658.402C58.4136 655.798 58.3937 653.194 58.3781 650.59C58.3697 649.852 58.3613 649.114 58.3527 648.354C58.338 645.103 58.4052 642.508 59.4406 639.402Z" fill="#95CECB"/>
<path d="M376.44 361.402C378.69 361.348 380.94 361.309 383.19 361.277C384.443 361.254 385.696 361.231 386.987 361.207C390.169 361.387 391.806 361.712 394.44 363.402C390.087 364.243 385.996 364.51 381.565 364.465C380.413 364.456 379.261 364.447 378.073 364.438C377.204 364.426 376.336 364.414 375.44 364.402C375.77 363.412 376.1 362.422 376.44 361.402Z" fill="#161F23"/>
<path d="M417.44 295.402C418.1 296.062 418.76 296.722 419.44 297.402C418.45 297.732 417.46 298.062 416.44 298.402C416.11 298.072 415.78 297.742 415.44 297.402C412.065 298.588 409.793 299.678 407.44 302.402C408.016 300.017 408.663 297.735 409.44 295.402C412.348 293.949 414.336 294.691 417.44 295.402Z" fill="#151E21"/>
<path d="M438.44 229.402C442.07 229.402 445.7 229.402 449.44 229.402C448.45 229.897 448.45 229.897 447.44 230.402C447.44 231.062 447.44 231.722 447.44 232.402C444.8 232.402 442.16 232.402 439.44 232.402C439.11 231.412 438.78 230.422 438.44 229.402Z" fill="#182124"/>
<path d="M365.44 2.40234C367.524 2.37525 369.607 2.35591 371.69 2.33984C372.851 2.32824 374.011 2.31664 375.206 2.30469C377.85 2.38452 379.939 2.61591 382.44 3.40234C382.44 4.06234 382.44 4.72234 382.44 5.40234C380.107 5.44476 377.773 5.44327 375.44 5.40234C375.11 5.07234 374.78 4.74234 374.44 4.40234C372.926 4.17042 371.403 3.99019 369.878 3.83984C369.052 3.75605 368.225 3.67227 367.374 3.58594C366.736 3.52535 366.098 3.46477 365.44 3.40234C365.44 3.07234 365.44 2.74234 365.44 2.40234Z" fill="#060D0E"/>
<path d="M601.44 789.402C603.934 793.142 603.501 794.693 603.065 799.09C602.955 800.269 602.844 801.449 602.73 802.664C602.634 803.568 602.539 804.471 602.44 805.402C602.11 805.402 601.78 805.402 601.44 805.402C601.245 803.299 601.06 801.195 600.878 799.09C600.774 797.918 600.669 796.746 600.562 795.539C600.44 792.402 600.44 792.402 601.44 789.402Z" fill="#192529"/>
<path d="M624.44 468.402C626.561 471.936 626.972 475.346 627.44 479.402C626.45 479.402 625.46 479.402 624.44 479.402C623.155 471.974 623.155 471.974 624.44 468.402Z" fill="#151E21"/>
<path d="M287.44 8.40246C287.11 9.06246 286.78 9.72246 286.44 10.4025C284.444 10.8868 284.444 10.8868 282.003 11.1525C280.798 11.2994 280.798 11.2994 279.569 11.4493C277.44 11.4025 277.44 11.4025 275.44 9.40246C276.875 9.03844 278.314 8.6866 279.753 8.33996C280.553 8.14273 281.354 7.94551 282.179 7.7423C284.44 7.40246 284.44 7.40246 287.44 8.40246Z" fill="#161D20"/>
<path d="M549.44 137.402C550.43 137.732 551.42 138.062 552.44 138.402C552.44 140.736 552.44 143.069 552.44 145.402C551.45 145.402 550.46 145.402 549.44 145.402C549.06 143.076 548.728 140.742 548.44 138.402C548.77 138.072 549.1 137.742 549.44 137.402Z" fill="#88BDBB"/>
<path d="M60.4404 656.402C60.7704 656.402 61.1004 656.402 61.4404 656.402C61.4404 659.702 61.4404 663.002 61.4404 666.402C60.4504 666.072 59.4604 665.742 58.4404 665.402C58.3154 662.027 58.3154 662.027 58.4404 658.402C59.1004 657.742 59.7604 657.082 60.4404 656.402Z" fill="#82B6B4"/>
<path d="M87.4405 459.402C88.1005 459.732 88.7605 460.062 89.4405 460.402C89.4405 461.392 89.4405 462.382 89.4405 463.402C88.7805 463.402 88.1205 463.402 87.4405 463.402C86.7805 465.712 86.1205 468.022 85.4405 470.402C84.4858 468.233 84.2965 466.839 85.042 464.578C85.7992 462.834 86.6166 461.116 87.4405 459.402Z" fill="#9BD6D3"/>
<path d="M429.44 142.402C429.11 143.392 428.78 144.382 428.44 145.402C425.378 146.59 425.378 146.59 422.44 147.402C421.78 146.742 421.12 146.082 420.44 145.402C427.19 142.402 427.19 142.402 429.44 142.402Z" fill="#121E21"/>
<path d="M41.4404 636.402C42.1004 636.402 42.7604 636.402 43.4404 636.402C43.4404 638.712 43.4404 641.022 43.4404 643.402C42.4504 643.402 41.4604 643.402 40.4404 643.402C40.3979 641.403 40.3996 639.402 40.4404 637.402C40.7704 637.072 41.1004 636.742 41.4404 636.402Z" fill="#182024"/>
<path d="M640.44 611.402C643.59 614.826 644.002 617.845 644.44 622.402C644.11 621.742 643.78 621.082 643.44 620.402C642.78 620.402 642.12 620.402 641.44 620.402C641.11 617.432 640.78 614.462 640.44 611.402Z" fill="#0A0F12"/>
<path d="M390.44 258.402C391.43 258.732 392.42 259.062 393.44 259.402C393.44 260.392 393.44 261.382 393.44 262.402C392.78 262.402 392.12 262.402 391.44 262.402C391.44 265.372 391.44 268.342 391.44 271.402C391.11 271.402 390.78 271.402 390.44 271.402C390.44 267.112 390.44 262.822 390.44 258.402Z" fill="#152326"/>
<path d="M333.44 234.402C336.565 234.215 336.565 234.215 339.44 234.402C339.44 235.062 339.44 235.722 339.44 236.402C340.43 236.732 341.42 237.062 342.44 237.402C338.81 237.402 335.18 237.402 331.44 237.402C332.1 236.412 332.76 235.422 333.44 234.402Z" fill="#152126"/>
<path d="M109.44 828.402C112.41 828.402 115.38 828.402 118.44 828.402C116.955 829.887 116.955 829.887 115.44 831.402C111.753 831.09 111.753 831.09 108.44 830.402C108.77 829.742 109.1 829.082 109.44 828.402Z" fill="#152226"/>
<path d="M189.44 420.402C193.159 420.909 196.175 421.518 199.44 423.402C199.11 424.062 198.78 424.722 198.44 425.402C194.127 424.923 192.275 423.657 189.44 420.402Z" fill="#111F23"/>
<path d="M149.44 861.402C152.41 861.897 152.41 861.897 155.44 862.402C155.44 863.392 155.44 864.382 155.44 865.402C152.47 864.907 152.47 864.907 149.44 864.402C149.44 863.412 149.44 862.422 149.44 861.402Z" fill="#1A2527"/>
<path d="M100.44 382.402C101.43 382.402 102.42 382.402 103.44 382.402C102.69 388.152 102.69 388.152 100.44 390.402C99.4593 387.35 99.4593 385.455 100.44 382.402Z" fill="#152023"/>
<path d="M104.44 373.402C105.375 376.413 105.485 377.269 104.44 380.402C103.45 380.402 102.46 380.402 101.44 380.402C101.815 377.465 101.815 377.465 102.44 374.402C103.1 374.072 103.76 373.742 104.44 373.402Z" fill="#1B2426"/>
</svg>
